{
   "accessors" : [
      {
         "bufferView" : 2,
         "byteOffset" : 0,
         "componentType" : 5126,
         "count" : 2596,
         "max" : [ 0.2631747424602509, 0.5542271137237549, 0.06575388461351395, 1 ],
         "min" : [ 0.1939721554517746, 0.08919350802898407, 0.06190747767686844, 1 ],
         "name" : "accessor_color_m0-PolyPaper20_-50074",
         "type" : "VEC4"
      },
      {
         "bufferView" : 0,
         "byteOffset" : 0,
         "componentType" : 5123,
         "count" : 2796,
         "max" : [ 2595 ],
         "min" : [ 0 ],
         "name" : "accessor_indices_0_m0-PolyPaper20_-50074",
         "type" : "SCALAR"
      },
      {
         "bufferView" : 1,
         "byteOffset" : 31152,
         "componentType" : 5126,
         "count" : 2596,
         "max" : [ 0.9990959, 0.9974375, 0.9997655 ],
         "min" : [ -0.9995269, -1, -0.9987815 ],
         "name" : "accessor_normal_m0-PolyPaper20_-50074",
         "type" : "VEC3"
      },
      {
         "bufferView" : 1,
         "byteOffset" : 0,
         "componentType" : 5126,
         "count" : 2596,
         "max" : [ 0.7870597, 2.691566, 0.1738982 ],
         "min" : [ -0.8630433, 0.9499739, -1.346389 ],
         "name" : "accessor_position_m0-PolyPaper20_-50074",
         "type" : "VEC3"
      }
   ],
   "asset" : {
      "copyright" : "Unknown",
      "extras" : {
         "GOOGLE_processor_version" : 294144208
      },
      "generator" : "glTF 1-to-2 Upgrader for Google Blocks",
      "version" : "2.0"
   },
   "bufferViews" : [
      {
         "buffer" : 0,
         "byteLength" : 5592,
         "byteOffset" : 0,
         "name" : "ushortBufferView",
         "target" : 34963
      },
      {
         "buffer" : 0,
         "byteLength" : 62304,
         "byteOffset" : 5592,
         "byteStride" : 12,
         "name" : "vec3BufferView",
         "target" : 34962
      },
      {
         "buffer" : 0,
         "byteLength" : 41536,
         "byteOffset" : 67896,
         "byteStride" : 16,
         "name" : "vec4BufferView",
         "target" : 34962
      }
   ],
   "buffers" : [
      {
         "byteLength" : 109432,
         "name" : "model",
         "uri" : "model.bin"
      }
   ],
   "cameras" : [
      {
         "perspective" : {
            "yfov" : 0.7853981633974483,
            "znear" : 0.1000000014901161
         },
         "type" : "perspective"
      }
   ],
   "extensions" : {
      "KHR_lights_punctual" : {
         "lights" : [
            {
               "color" : [ 1, 0.9333333333333333, 0.8666666666666667 ],
               "intensity" : 0.25,
               "name" : "headLight",
               "type" : "directional"
            },
            {
               "color" : [ 1, 0.9333333333333333, 0.8666666666666667 ],
               "intensity" : 0.324999988079071,
               "name" : "keyLight",
               "type" : "directional"
            }
         ]
      }
   },
   "extensionsUsed" : [ "GOOGLE_backgrounds", "GOOGLE_camera_settings", "KHR_lights_punctual" ],
   "extras" : {
      "GOOGLE_initial_camera_motion" : {
         "motionPath" : "FULL_ROTATION"
      },
      "GOOGLE_lighting_rig" : {
         "disableShadows" : false
      }
   },
   "materials" : [
      {
         "alphaMode" : "OPAQUE",
         "doubleSided" : false,
         "name" : "BlocksPaper",
         "pbrMetallicRoughness" : {
            "baseColorFactor" : [ 1, 1, 1, 1 ],
            "metallicFactor" : 0,
            "roughnessFactor" : 0.6
         }
      },
      {
         "alphaMode" : "BLEND",
         "doubleSided" : false,
         "name" : "BlocksGlass",
         "pbrMetallicRoughness" : {
            "baseColorFactor" : [ 0.2, 0.2, 1, 0.3 ],
            "metallicFactor" : 1,
            "roughnessFactor" : 0.4
         }
      },
      {
         "alphaMode" : "OPAQUE",
         "doubleSided" : true,
         "name" : "BlocksGem",
         "pbrMetallicRoughness" : {
            "baseColorFactor" : [ 1, 0.4, 1, 1 ],
            "metallicFactor" : 0,
            "roughnessFactor" : 0.1
         }
      }
   ],
   "meshes" : [
      {
         "name" : "mesh_m0-PolyPaper20_-50074",
         "primitives" : [
            {
               "attributes" : {
                  "COLOR_0" : 0,
                  "NORMAL" : 2,
                  "POSITION" : 3
               },
               "indices" : 1,
               "material" : 0,
               "mode" : 4
            }
         ]
      }
   ],
   "nodes" : [
      {
         "mesh" : 0,
         "name" : "node_MeshObject299166464-PolyPaper20"
      },
      {
         "children" : [ 2 ]
      },
      {
         "children" : [ 3 ],
         "extras" : {
            "isTransformNode" : 1
         },
         "translation" : [ 0.02465319452042045, 2.085347433485302, -0.5234137445740705 ]
      },
      {
         "children" : [ 0 ],
         "translation" : [ -0.02465319452042045, -2.085347433485302, 0.5234137445740705 ]
      },
      {
         "camera" : 0,
         "children" : [ 5 ],
         "rotation" : [
            -0.04927725026089742,
            0.1843096257547957,
            0.009252625987070969,
            0.9815885611462655
         ],
         "translation" : [ 1.374584555625916, 2.384158134460449, 3.106730699539185 ]
      },
      {
         "extensions" : {
            "KHR_lights_punctual" : {
               "light" : 0
            }
         },
         "extras" : {
            "isHeadLight" : 1
         },
         "name" : "headLightNode",
         "translation" : [ -1.429377415605278, 0.7146887078026389, 0.7146887078026389 ]
      },
      {
         "extensions" : {
            "KHR_lights_punctual" : {
               "light" : 1
            }
         },
         "extras" : {
            "isKeyLight" : 1
         },
         "name" : "keyLightNode",
         "rotation" : [ -0.7505326882858236, -0.3752663441429118, 0, 0.5439447166468927 ],
         "scale" : [ 0, 0, 1.443671189761331 ],
         "translation" : [ -1.46645637046988, 5.112071807782756, -1.931381283637114 ]
      }
   ],
   "scene" : 0,
   "scenes" : [
      {
         "extensions" : {
            "GOOGLE_backgrounds" : {
               "color" : [ 0.7411764705882353, 0.7411764705882353, 0.7411764705882353 ]
            },
            "GOOGLE_camera_settings" : {}
         },
         "extras" : {
            "GOOGLE_camera_index" : {
               "cameraIndex" : 0,
               "nodeIndex" : 4
            },
            "GOOGLE_geometry_data" : {
               "stats" : {
                  "centroid" : [ -0.02278518070854965, 2.224729428260095, -0.487710093875783 ],
                  "radius" : 1.429377415605278,
                  "stdev" : 0.5840726792855186
               },
               "visualCenterPoint" : [ 0.02465319452042045, 2.085347433485302, -0.5234137445740705 ]
            },
            "GOOGLE_hemi_light" : {
               "groundColor" : [ 0.7411764705882353, 0.7411764705882353, 0.7411764705882353 ]
            }
         },
         "name" : "defaultScene",
         "nodes" : [ 1, 4, 6 ]
      }
   ]
}
