{
   "accessors" : [
      {
         "bufferView" : 2,
         "byteOffset" : 0,
         "componentType" : 5126,
         "count" : 9934,
         "max" : [ 1, 0.835527777671814, 0.6387794613838196, 1 ],
         "min" : [ 0.0697270855307579, 0.01606770046055317, 0, 1 ],
         "name" : "accessor_color_m0-PolyPaper10_-9510",
         "type" : "VEC4"
      },
      {
         "bufferView" : 2,
         "byteOffset" : 158944,
         "componentType" : 5126,
         "count" : 7560,
         "max" : [ 1, 0.835527777671814, 0.03994716703891754, 1 ],
         "min" : [ 1, 0.835527777671814, 0.03994716703891754, 1 ],
         "name" : "accessor_color_m1-PolyPaper12_-34234",
         "type" : "VEC4"
      },
      {
         "bufferView" : 0,
         "byteOffset" : 0,
         "componentType" : 5123,
         "count" : 14520,
         "max" : [ 9933 ],
         "min" : [ 0 ],
         "name" : "accessor_indices_0_m0-PolyPaper10_-9510",
         "type" : "SCALAR"
      },
      {
         "bufferView" : 0,
         "byteOffset" : 29040,
         "componentType" : 5123,
         "count" : 11628,
         "max" : [ 7559 ],
         "min" : [ 0 ],
         "name" : "accessor_indices_0_m1-PolyPaper12_-34234",
         "type" : "SCALAR"
      },
      {
         "bufferView" : 1,
         "byteOffset" : 119208,
         "componentType" : 5126,
         "count" : 9934,
         "max" : [ 0.9996287, 0.9999772, 0.9997439 ],
         "min" : [ -0.9997717, -0.9996406, -0.9996477 ],
         "name" : "accessor_normal_m0-PolyPaper10_-9510",
         "type" : "VEC3"
      },
      {
         "bufferView" : 1,
         "byteOffset" : 329136,
         "componentType" : 5126,
         "count" : 7560,
         "max" : [ 0.9959801, 0.9904795, 0.9999247 ],
         "min" : [ -0.9960995, -0.9808158, -0.9999962999999999 ],
         "name" : "accessor_normal_m1-PolyPaper12_-34234",
         "type" : "VEC3"
      },
      {
         "bufferView" : 1,
         "byteOffset" : 0,
         "componentType" : 5126,
         "count" : 9934,
         "max" : [ 0.03512893, 0.403333, -0.2009358 ],
         "min" : [ -0.795629, 0.142081, -1.033382 ],
         "name" : "accessor_position_m0-PolyPaper10_-9510",
         "type" : "VEC3"
      },
      {
         "bufferView" : 1,
         "byteOffset" : 238416,
         "componentType" : 5126,
         "count" : 7560,
         "max" : [ -0.3021746, 0.3273662, -0.5238543 ],
         "min" : [ -0.4518517, 0.1960571, -0.6629545999999999 ],
         "name" : "accessor_position_m1-PolyPaper12_-34234",
         "type" : "VEC3"
      }
   ],
   "asset" : {
      "copyright" : "Unknown",
      "extras" : {
         "GOOGLE_processor_version" : 294144208
      },
      "generator" : "glTF 1-to-2 Upgrader for Google Blocks",
      "version" : "2.0"
   },
   "bufferViews" : [
      {
         "buffer" : 0,
         "byteLength" : 52296,
         "byteOffset" : 0,
         "name" : "ushortBufferView",
         "target" : 34963
      },
      {
         "buffer" : 0,
         "byteLength" : 419856,
         "byteOffset" : 52296,
         "byteStride" : 12,
         "name" : "vec3BufferView",
         "target" : 34962
      },
      {
         "buffer" : 0,
         "byteLength" : 279904,
         "byteOffset" : 472152,
         "byteStride" : 16,
         "name" : "vec4BufferView",
         "target" : 34962
      }
   ],
   "buffers" : [
      {
         "byteLength" : 752056,
         "name" : "model",
         "uri" : "model.bin"
      }
   ],
   "cameras" : [
      {
         "perspective" : {
            "yfov" : 0.7853981633974483,
            "znear" : 0.1000000014901161
         },
         "type" : "perspective"
      }
   ],
   "extensions" : {
      "KHR_lights_punctual" : {
         "lights" : [
            {
               "color" : [ 1, 0.9333333333333333, 0.8666666666666667 ],
               "intensity" : 0.25,
               "name" : "headLight",
               "type" : "directional"
            },
            {
               "color" : [ 1, 0.9333333333333333, 0.8666666666666667 ],
               "intensity" : 0.324999988079071,
               "name" : "keyLight",
               "type" : "directional"
            }
         ]
      }
   },
   "extensionsUsed" : [ "GOOGLE_backgrounds", "GOOGLE_camera_settings", "KHR_lights_punctual" ],
   "extras" : {
      "GOOGLE_initial_camera_motion" : {
         "motionPath" : "FULL_ROTATION"
      },
      "GOOGLE_lighting_rig" : {
         "disableShadows" : false
      }
   },
   "materials" : [
      {
         "alphaMode" : "OPAQUE",
         "doubleSided" : false,
         "name" : "BlocksPaper",
         "pbrMetallicRoughness" : {
            "baseColorFactor" : [ 1, 1, 1, 1 ],
            "metallicFactor" : 0,
            "roughnessFactor" : 0.6
         }
      },
      {
         "alphaMode" : "BLEND",
         "doubleSided" : false,
         "name" : "BlocksGlass",
         "pbrMetallicRoughness" : {
            "baseColorFactor" : [ 0.2, 0.2, 1, 0.3 ],
            "metallicFactor" : 1,
            "roughnessFactor" : 0.4
         }
      },
      {
         "alphaMode" : "OPAQUE",
         "doubleSided" : true,
         "name" : "BlocksGem",
         "pbrMetallicRoughness" : {
            "baseColorFactor" : [ 1, 0.4, 1, 1 ],
            "metallicFactor" : 0,
            "roughnessFactor" : 0.1
         }
      }
   ],
   "meshes" : [
      {
         "name" : "mesh_m0-PolyPaper10_-9510",
         "primitives" : [
            {
               "attributes" : {
                  "COLOR_0" : 0,
                  "NORMAL" : 4,
                  "POSITION" : 6
               },
               "indices" : 2,
               "material" : 0,
               "mode" : 4
            }
         ]
      },
      {
         "name" : "mesh_m1-PolyPaper12_-34234",
         "primitives" : [
            {
               "attributes" : {
                  "COLOR_0" : 1,
                  "NORMAL" : 5,
                  "POSITION" : 7
               },
               "indices" : 3,
               "material" : 0,
               "mode" : 4
            }
         ]
      }
   ],
   "nodes" : [
      {
         "mesh" : 0,
         "name" : "node_MeshObject-1316812352-PolyPaper10"
      },
      {
         "mesh" : 1,
         "name" : "node_MeshObject-1748210944-PolyPaper12"
      },
      {
         "children" : [ 3 ]
      },
      {
         "children" : [ 4 ],
         "extras" : {
            "isTransformNode" : 1
         },
         "translation" : [ -0.3809554235169047, 0.238643684805354, -0.6230350053785387 ]
      },
      {
         "children" : [ 0, 1 ],
         "translation" : [ 0.3809554235169047, -0.238643684805354, 0.6230350053785387 ]
      },
      {
         "camera" : 0,
         "children" : [ 6 ],
         "rotation" : [
            -0.4017298607596163,
            -0.1845689859140051,
            -0.08302049290999523,
            0.8931153375514926
         ],
         "translation" : [ -0.6936576962471008, 1.156962752342224, 0.1494008898735046 ]
      },
      {
         "extensions" : {
            "KHR_lights_punctual" : {
               "light" : 0
            }
         },
         "extras" : {
            "isHeadLight" : 1
         },
         "name" : "headLightNode",
         "translation" : [ -0.5037352271940748, 0.2518676135970374, 0.2518676135970374 ]
      },
      {
         "extensions" : {
            "KHR_lights_punctual" : {
               "light" : 1
            }
         },
         "extras" : {
            "isKeyLight" : 1
         },
         "name" : "keyLightNode",
         "rotation" : [ -0.7505326882858236, -0.3752663441429118, 0, 0.5439447166468927 ],
         "scale" : [ 0, 0, 0.5087725794660156 ],
         "translation" : [ -0.8822531289253043, 1.264925038750902, -1.099533377927523 ]
      }
   ],
   "scene" : 0,
   "scenes" : [
      {
         "extensions" : {
            "GOOGLE_backgrounds" : {
               "color" : [ 1, 0.9215686274509803, 0.2313725490196079 ]
            },
            "GOOGLE_camera_settings" : {}
         },
         "extras" : {
            "GOOGLE_camera_index" : {
               "cameraIndex" : 0,
               "nodeIndex" : 5
            },
            "GOOGLE_geometry_data" : {
               "stats" : {
                  "centroid" : [ -0.3734805494592887, 0.2473798798188709, -0.5907607984615078 ],
                  "radius" : 0.5037352271940748,
                  "stdev" : 0.07746836264372867
               },
               "visualCenterPoint" : [ -0.3809554235169047, 0.238643684805354, -0.6230350053785387 ]
            },
            "GOOGLE_hemi_light" : {
               "groundColor" : [ 1, 0.9215686274509803, 0.2313725490196079 ]
            }
         },
         "name" : "defaultScene",
         "nodes" : [ 2, 5, 7 ]
      }
   ]
}
