{
  "accessors": [
    {
      "bufferView": 3,
      "componentType": 5126,
      "count": 3910,
      "max": [
        16.595142364501953,
        74.064865112304688,
        40.954906463623047
      ],
      "min": [
        -52.080669403076172,
        5.1459188461303711,
        -89.168586730957031
      ],
      "type": "VEC3"
    },
    {
      "bufferView": 3,
      "byteOffset": 46920,
      "componentType": 5126,
      "count": 3910,
      "max": [
        0.99999421834945679,
        0.99999672174453735,
        0.99547547101974487
      ],
      "min": [
        -0.99996155500411987,
        -0.99999964237213135,
        -0.99983412027359009
      ],
      "type": "VEC3"
    },
    {
      "bufferView": 2,
      "componentType": 5126,
      "count": 3910,
      "max": [
        0.90765762329101562,
        0.95029997825622559
      ],
      "min": [
        0.062504135072231293,
        0.02444833517074585
      ],
      "type": "VEC2"
    },
    {
      "bufferView": 2,
      "byteOffset": 31280,
      "componentType": 5126,
      "count": 3910,
      "max": [
        0.90765762329101562,
        0.95029997825622559
      ],
      "min": [
        0.062504135072231293,
        0.02444833517074585
      ],
      "type": "VEC2"
    },
    {
      "bufferView": 1,
      "componentType": 5125,
      "count": 19488,
      "max": [
        3909
      ],
      "min": [
        0
      ],
      "type": "SCALAR"
    },
    {
      "bufferView": 5,
      "componentType": 5126,
      "count": 6,
      "max": [
        1,
        0,
        0.0003214353637304157,
        0,
        0.41173115372657776,
        1,
        0.99754798412322998,
        0,
        0,
        0.027961850166320801,
        1,
        0,
        37.900173187255859,
        0,
        0,
        1
      ],
      "min": [
        -0.030334632843732834,
        -0.99999988079071045,
        -0.0036494382657110691,
        0,
        0,
        -0.0043708956800401211,
        0,
        0,
        -1.2527369260787964,
        -0.014637560583651066,
        0.069985352456569672,
        0,
        -117.81685638427734,
        -18.883092880249023,
        -41.420097351074219,
        1
      ],
      "type": "MAT4"
    },
    {
      "bufferView": 0,
      "componentType": 5123,
      "count": 3910,
      "max": [
        5,
        5,
        5,
        1
      ],
      "min": [
        1,
        1,
        1,
        1
      ],
      "type": "VEC4"
    },
    {
      "bufferView": 4,
      "componentType": 5126,
      "count": 3910,
      "max": [
        1,
        0.5,
        0.23076924681663513,
        0
      ],
      "min": [
        0.46124997735023499,
        0,
        0,
        0
      ],
      "type": "VEC4"
    },
    {
      "bufferView": 6,
      "componentType": 5126,
      "count": 30,
      "max": [
        1
      ],
      "min": [
        0
      ],
      "type": "SCALAR"
    },
    {
      "bufferView": 7,
      "componentType": 5126,
      "count": 30,
      "max": [
        22.80828857421875,
        6.866455078125e-05,
        7.1054273576010019e-15
      ],
      "min": [
        22.80828857421875,
        6.866455078125e-05,
        -7.1054273576010019e-15
      ],
      "type": "VEC3"
    },
    {
      "bufferView": 6,
      "byteOffset": 120,
      "componentType": 5126,
      "count": 31,
      "max": [
        1
      ],
      "min": [
        0
      ],
      "type": "SCALAR"
    },
    {
      "bufferView": 8,
      "componentType": 5126,
      "count": 31,
      "max": [
        0.08369879424571991,
        0.0046465652994811535,
        0.23911602795124054,
        0.99975055456161499
      ],
      "min": [
        -0.091571599245071411,
        -0.022745795547962189,
        -0.26423099637031555,
        0.96008509397506714
      ],
      "type": "VEC4"
    },
    {
      "bufferView": 6,
      "byteOffset": 244,
      "componentType": 5126,
      "count": 21,
      "max": [
        1
      ],
      "min": [
        0
      ],
      "type": "SCALAR"
    },
    {
      "bufferView": 7,
      "byteOffset": 360,
      "componentType": 5126,
      "count": 21,
      "max": [
        19.054191589355469,
        -0.0002002716064453125,
        7.1054273576010019e-15
      ],
      "min": [
        19.054191589355469,
        -0.0002002716064453125,
        -1.4210854715202004e-14
      ],
      "type": "VEC3"
    },
    {
      "bufferView": 6,
      "byteOffset": 328,
      "componentType": 5126,
      "count": 31,
      "max": [
        1
      ],
      "min": [
        0
      ],
      "type": "SCALAR"
    },
    {
      "bufferView": 8,
      "byteOffset": 496,
      "componentType": 5126,
      "count": 31,
      "max": [
        -0.0011145125608891249,
        -0.059769861400127411,
        -0.018610149621963501,
        0.99803805351257324
      ],
      "min": [
        -0.0011145125608891249,
        -0.059769861400127411,
        -0.018610149621963501,
        0.99803805351257324
      ],
      "type": "VEC4"
    },
    {
      "bufferView": 6,
      "byteOffset": 452,
      "componentType": 5126,
      "count": 30,
      "max": [
        1
      ],
      "min": [
        0
      ],
      "type": "SCALAR"
    },
    {
      "bufferView": 7,
      "byteOffset": 612,
      "componentType": 5126,
      "count": 30,
      "max": [
        31.326272964477539,
        -1.9073486328125e-06,
        1.4210854715202004e-14
      ],
      "min": [
        31.326272964477539,
        -1.9073486328125e-06,
        -1.4210854715202004e-14
      ],
      "type": "VEC3"
    },
    {
      "bufferView": 6,
      "byteOffset": 572,
      "componentType": 5126,
      "count": 31,
      "max": [
        1
      ],
      "min": [
        0
      ],
      "type": "SCALAR"
    },
    {
      "bufferView": 8,
      "byteOffset": 992,
      "componentType": 5126,
      "count": 31,
      "max": [
        0.035032711923122406,
        0.00039822445251047611,
        0.21756091713905334,
        0.99998301267623901
      ],
      "min": [
        -0.026516439393162727,
        -0.0055987951345741749,
        -0.14193442463874817,
        0.97541767358779907
      ],
      "type": "VEC4"
    },
    {
      "bufferView": 6,
      "byteOffset": 696,
      "componentType": 5126,
      "count": 24,
      "max": [
        1
      ],
      "min": [
        0
      ],
      "type": "SCALAR"
    },
    {
      "bufferView": 7,
      "byteOffset": 972,
      "componentType": 5126,
      "count": 24,
      "max": [
        55.892337799072266,
        0.00032806396484375,
        1.4210854715202004e-14
      ],
      "min": [
        55.892337799072266,
        0.00032806396484375,
        -7.1054273576010019e-15
      ],
      "type": "VEC3"
    },
    {
      "bufferView": 6,
      "byteOffset": 792,
      "componentType": 5126,
      "count": 31,
      "max": [
        1
      ],
      "min": [
        0
      ],
      "type": "SCALAR"
    },
    {
      "bufferView": 8,
      "byteOffset": 1488,
      "componentType": 5126,
      "count": 31,
      "max": [
        0.015490766614675522,
        -0.041770495474338531,
        0.13886293768882751,
        0.99885731935501099
      ],
      "min": [
        -0.036906752735376358,
        -0.050715625286102295,
        -0.32639932632446289,
        0.94325834512710571
      ],
      "type": "VEC4"
    },
    {
      "bufferView": 6,
      "byteOffset": 916,
      "componentType": 5126,
      "count": 31,
      "max": [
        1
      ],
      "min": [
        0
      ],
      "type": "SCALAR"
    },
    {
      "bufferView": 7,
      "byteOffset": 1260,
      "componentType": 5126,
      "count": 31,
      "max": [
        0.68675994873046875,
        38.666049957275391,
        40.628074645996094
      ],
      "min": [
        -35.236091613769531,
        38.666049957275391,
        40.628074645996094
      ],
      "type": "VEC3"
    },
    {
      "bufferView": 6,
      "byteOffset": 1040,
      "componentType": 5126,
      "count": 31,
      "max": [
        1
      ],
      "min": [
        0
      ],
      "type": "SCALAR"
    },
    {
      "bufferView": 8,
      "byteOffset": 1984,
      "componentType": 5126,
      "count": 31,
      "max": [
        -0.37847515940666199,
        0.57332807779312134,
        0.58920019865036011,
        0.58477485179901123
      ],
      "min": [
        -0.54535454511642456,
        0.40943631529808044,
        0.43930482864379883,
        0.42531704902648926
      ],
      "type": "VEC4"
    }
  ],
  "animations": [
    {
      "channels": [
        {
          "sampler": 0,
          "target": {
            "node": 13,
            "path": "translation"
          }
        },
        {
          "sampler": 1,
          "target": {
            "node": 13,
            "path": "rotation"
          }
        },
        {
          "sampler": 2,
          "target": {
            "node": 12,
            "path": "translation"
          }
        },
        {
          "sampler": 3,
          "target": {
            "node": 12,
            "path": "rotation"
          }
        },
        {
          "sampler": 4,
          "target": {
            "node": 11,
            "path": "translation"
          }
        },
        {
          "sampler": 5,
          "target": {
            "node": 11,
            "path": "rotation"
          }
        },
        {
          "sampler": 6,
          "target": {
            "node": 10,
            "path": "translation"
          }
        },
        {
          "sampler": 7,
          "target": {
            "node": 10,
            "path": "rotation"
          }
        },
        {
          "sampler": 8,
          "target": {
            "node": 9,
            "path": "translation"
          }
        },
        {
          "sampler": 9,
          "target": {
            "node": 9,
            "path": "rotation"
          }
        }
      ],
      "name": "Take 001",
      "samplers": [
        {
          "input": 8,
          "interpolation": "LINEAR",
          "output": 9
        },
        {
          "input": 10,
          "interpolation": "LINEAR",
          "output": 11
        },
        {
          "input": 12,
          "interpolation": "LINEAR",
          "output": 13
        },
        {
          "input": 14,
          "interpolation": "LINEAR",
          "output": 15
        },
        {
          "input": 16,
          "interpolation": "LINEAR",
          "output": 17
        },
        {
          "input": 18,
          "interpolation": "LINEAR",
          "output": 19
        },
        {
          "input": 20,
          "interpolation": "LINEAR",
          "output": 21
        },
        {
          "input": 22,
          "interpolation": "LINEAR",
          "output": 23
        },
        {
          "input": 24,
          "interpolation": "LINEAR",
          "output": 25
        },
        {
          "input": 26,
          "interpolation": "LINEAR",
          "output": 27
        }
      ]
    }
  ],
  "asset": {
    "extras": {
      "author": "Pia Krensel (https://sketchfab.com/Pidele)",
      "license": "CC-BY-4.0 (http://creativecommons.org/licenses/by/4.0/)",
      "source": "https://sketchfab.com/3d-models/fish-animated-665ab73155a44d91908519d84e5fd002",
      "title": "Fish Animated"
    },
    "generator": "Sketchfab-7.92.0",
    "version": "2.0"
  },
  "bufferViews": [
    {
      "buffer": 0,
      "byteLength": 31280,
      "byteOffset": 0,
      "byteStride": 8,
      "name": "shortBufferViews",
      "target": 34962
    },
    {
      "buffer": 0,
      "byteLength": 77952,
      "byteOffset": 31280,
      "name": "floatBufferViews",
      "target": 34963
    },
    {
      "buffer": 0,
      "byteLength": 62560,
      "byteOffset": 109232,
      "byteStride": 8,
      "name": "floatBufferViews",
      "target": 34962
    },
    {
      "buffer": 0,
      "byteLength": 93840,
      "byteOffset": 171792,
      "byteStride": 12,
      "name": "floatBufferViews",
      "target": 34962
    },
    {
      "buffer": 0,
      "byteLength": 62560,
      "byteOffset": 265632,
      "byteStride": 16,
      "name": "floatBufferViews",
      "target": 34962
    },
    {
      "buffer": 0,
      "byteLength": 384,
      "byteOffset": 328192,
      "byteStride": 64,
      "name": "floatBufferViews"
    },
    {
      "buffer": 0,
      "byteLength": 1164,
      "byteOffset": 328576,
      "name": "floatBufferViews"
    },
    {
      "buffer": 0,
      "byteLength": 1632,
      "byteOffset": 329740,
      "byteStride": 12,
      "name": "floatBufferViews"
    },
    {
      "buffer": 0,
      "byteLength": 2480,
      "byteOffset": 331372,
      "byteStride": 16,
      "name": "floatBufferViews"
    }
  ],
  "buffers": [
    {
      "byteLength": 333852,
      "uri": "scene.bin"
    }
  ],
  "images": [
    {
      "uri": "textures/Material_3_baseColor.jpeg"
    }
  ],
  "materials": [
    {
      "doubleSided": true,
      "emissiveFactor": [
        0,
        0,
        0
      ],
      "name": "Material_3",
      "pbrMetallicRoughness": {
        "baseColorFactor": [
          1,
          1,
          1,
          1
        ],
        "baseColorTexture": {
          "index": 0,
          "texCoord": 0
        },
        "metallicFactor": 0,
        "roughnessFactor": 0.59999999999999998
      }
    }
  ],
  "meshes": [
    {
      "name": "Fish_Material #3_0",
      "primitives": [
        {
          "attributes": {
            "JOINTS_0": 6,
            "NORMAL": 1,
            "POSITION": 0,
            "TEXCOORD_0": 2,
            "TEXCOORD_1": 3,
            "WEIGHTS_0": 7
          },
          "indices": 4,
          "material": 0,
          "mode": 4
        }
      ]
    }
  ],
  "nodes": [
    {
      "children": [
        1
      ],
      "name": "RootNode (gltf orientation matrix)",
      "rotation": [
        -0.70710678118654746,
        -0,
        -0,
        0.70710678118654757
      ]
    },
    {
      "children": [
        2
      ],
      "name": "RootNode (model correction matrix)"
    },
    {
      "children": [
        3
      ],
      "matrix": [
        1,
        0,
        0,
        0,
        0,
        0,
        1,
        0,
        0,
        -1,
        0,
        0,
        0,
        0,
        0,
        1
      ],
      "name": "5a0bfc99cd384f67873471011361bc5b.fbx"
    },
    {
      "children": [
        4
      ],
      "name": ""
    },
    {
      "children": [
        5
      ],
      "name": "RootNode"
    },
    {
      "children": [
        6,
        8,
        7,
        14
      ],
      "name": ""
    },
    {
      "children": [
        9
      ],
      "name": "_rootJoint"
    },
    {
      "matrix": [
        0.99999999999999989,
        5.4210108624275222e-20,
        -9.6900569165891959e-19,
        0,
        -9.6900569165891978e-19,
        6.123233995736766e-17,
        -1,
        0,
        -5.4210108624275174e-20,
        1,
        6.123233995736766e-17,
        0,
        -16.408596038818356,
        7.1054273576010019e-15,
        -0.18284034729004617,
        1
      ],
      "name": ""
    },
    {
      "mesh": 0,
      "name": "",
      "skin": 0
    },
    {
      "children": [
        10
      ],
      "name": "Bone001_00",
      "rotation": [
        -0.54535454511642456,
        0.40943634510040283,
        0.43930482864379883,
        0.58477479219436646
      ],
      "translation": [
        -35.236091613769531,
        38.666049957275391,
        40.628074645996094
      ]
    },
    {
      "children": [
        11
      ],
      "name": "Bone002_01",
      "rotation": [
        0.016406256705522537,
        -0.048446863889694214,
        0.13875612616539001,
        0.98900479078292847
      ],
      "scale": [
        0.87217521667480469,
        1,
        1
      ],
      "translation": [
        55.892337799072266,
        0.00032806396484375,
        -3.814697265625e-06
      ]
    },
    {
      "children": [
        12
      ],
      "name": "Bone003_02",
      "rotation": [
        0.03444928303360939,
        0.002413842361420393,
        0.2168431431055069,
        0.97559547424316406
      ],
      "scale": [
        1.0688462257385254,
        0.99999994039535522,
        1.0000002384185791
      ],
      "translation": [
        31.326267242431641,
        -5.7220458984375e-06,
        7.1054273576010019e-15
      ]
    },
    {
      "children": [
        13
      ],
      "name": "Bone004_03",
      "rotation": [
        -0.0014372890582308173,
        -0.070652797818183899,
        -0.019892234355211258,
        0.99730157852172852
      ],
      "scale": [
        0.8082459568977356,
        1.0000001192092896,
        1
      ],
      "translation": [
        19.054183959960938,
        -0.00020051002502441406,
        7.1054273576010019e-15
      ]
    },
    {
      "name": "Bone005_04",
      "rotation": [
        -0.091571599245071411,
        -0.0057699074968695641,
        -0.26423099637031555,
        0.96008509397506714
      ],
      "translation": [
        22.80828857421875,
        6.9141387939453125e-05,
        3.814697265625e-06
      ]
    },
    {
      "name": "Fish",
      "rotation": [
        -0.7071068286895752,
        -0,
        0,
        0.7071068286895752
      ],
      "translation": [
        -16.408596038818359,
        0,
        -0.18284034729003906
      ]
    }
  ],
  "samplers": [
    {
      "magFilter": 9729,
      "minFilter": 9987,
      "wrapS": 10497,
      "wrapT": 10497
    }
  ],
  "scene": 0,
  "scenes": [
    {
      "name": "OSG_Scene",
      "nodes": [
        0
      ]
    }
  ],
  "skins": [
    {
      "inverseBindMatrices": 5,
      "joints": [
        6,
        9,
        10,
        11,
        12,
        13
      ],
      "skeleton": 6
    }
  ],
  "textures": [
    {
      "sampler": 0,
      "source": 0
    }
  ]
}

