{
   "accessors" : [
      {
         "bufferView" : 2,
         "byteOffset" : 0,
         "componentType" : 5126,
         "count" : 9888,
         "max" : [ 0.2631747424602509, 0.5542271137237549, 0.07805658876895905, 1 ],
         "min" : [ 0.0697270855307579, 0.4368127584457397, 0.06575388461351395, 1 ],
         "name" : "accessor_color_m0-PolyPaper10_-463270",
         "type" : "VEC4"
      },
      {
         "bufferView" : 2,
         "byteOffset" : 158208,
         "componentType" : 5126,
         "count" : 8266,
         "max" : [ 0.2631747424602509, 0.5542271137237549, 0.07805658876895905, 1 ],
         "min" : [ 0.0697270855307579, 0.08919350802898407, 0.06190747767686844, 1 ],
         "name" : "accessor_color_m1-PolyPaper10_-466844",
         "type" : "VEC4"
      },
      {
         "bufferView" : 0,
         "byteOffset" : 0,
         "componentType" : 5123,
         "count" : 14292,
         "max" : [ 9887 ],
         "min" : [ 0 ],
         "name" : "accessor_indices_0_m0-PolyPaper10_-463270",
         "type" : "SCALAR"
      },
      {
         "bufferView" : 0,
         "byteOffset" : 28584,
         "componentType" : 5123,
         "count" : 11394,
         "max" : [ 8265 ],
         "min" : [ 0 ],
         "name" : "accessor_indices_0_m1-PolyPaper10_-466844",
         "type" : "SCALAR"
      },
      {
         "bufferView" : 1,
         "byteOffset" : 118656,
         "componentType" : 5126,
         "count" : 9888,
         "max" : [ 0.9983497, 0.9998946, 0.9997125 ],
         "min" : [ -0.999771, -0.9999514, -0.9999440000000001 ],
         "name" : "accessor_normal_m0-PolyPaper10_-463270",
         "type" : "VEC3"
      },
      {
         "bufferView" : 1,
         "byteOffset" : 336504,
         "componentType" : 5126,
         "count" : 8266,
         "max" : [ 0.9997196, 0.9998072, 0.9999761 ],
         "min" : [ -0.9994994, -0.9998397999999999, -0.9984349 ],
         "name" : "accessor_normal_m1-PolyPaper10_-466844",
         "type" : "VEC3"
      },
      {
         "bufferView" : 1,
         "byteOffset" : 0,
         "componentType" : 5126,
         "count" : 9888,
         "max" : [ -0.8692277, 2.398379, 0.03818427 ],
         "min" : [ -1.510323, 1.56889, -0.8561935000000001 ],
         "name" : "accessor_position_m0-PolyPaper10_-463270",
         "type" : "VEC3"
      },
      {
         "bufferView" : 1,
         "byteOffset" : 237312,
         "componentType" : 5126,
         "count" : 8266,
         "max" : [ -0.5383064, 2.27649, 0.02297157 ],
         "min" : [ -1.359946, 1.56649, -0.7121703 ],
         "name" : "accessor_position_m1-PolyPaper10_-466844",
         "type" : "VEC3"
      }
   ],
   "asset" : {
      "copyright" : "Unknown",
      "extras" : {
         "GOOGLE_processor_version" : 294144208
      },
      "generator" : "glTF 1-to-2 Upgrader for Google Blocks",
      "version" : "2.0"
   },
   "bufferViews" : [
      {
         "buffer" : 0,
         "byteLength" : 51372,
         "byteOffset" : 0,
         "name" : "ushortBufferView",
         "target" : 34963
      },
      {
         "buffer" : 0,
         "byteLength" : 435696,
         "byteOffset" : 51372,
         "byteStride" : 12,
         "name" : "vec3BufferView",
         "target" : 34962
      },
      {
         "buffer" : 0,
         "byteLength" : 290464,
         "byteOffset" : 487068,
         "byteStride" : 16,
         "name" : "vec4BufferView",
         "target" : 34962
      }
   ],
   "buffers" : [
      {
         "byteLength" : 777532,
         "name" : "model",
         "uri" : "model.bin"
      }
   ],
   "cameras" : [
      {
         "perspective" : {
            "yfov" : 0.7853981633974483,
            "znear" : 0.1000000014901161
         },
         "type" : "perspective"
      }
   ],
   "extensions" : {
      "KHR_lights_punctual" : {
         "lights" : [
            {
               "color" : [ 1, 0.9333333333333333, 0.8666666666666667 ],
               "intensity" : 0.25,
               "name" : "headLight",
               "type" : "directional"
            },
            {
               "color" : [ 1, 0.9333333333333333, 0.8666666666666667 ],
               "intensity" : 0.324999988079071,
               "name" : "keyLight",
               "type" : "directional"
            }
         ]
      }
   },
   "extensionsUsed" : [ "GOOGLE_backgrounds", "GOOGLE_camera_settings", "KHR_lights_punctual" ],
   "extras" : {
      "GOOGLE_initial_camera_motion" : {
         "motionPath" : "FULL_ROTATION"
      },
      "GOOGLE_lighting_rig" : {
         "disableShadows" : false
      }
   },
   "materials" : [
      {
         "alphaMode" : "OPAQUE",
         "doubleSided" : false,
         "name" : "BlocksPaper",
         "pbrMetallicRoughness" : {
            "baseColorFactor" : [ 1, 1, 1, 1 ],
            "metallicFactor" : 0,
            "roughnessFactor" : 0.6
         }
      },
      {
         "alphaMode" : "BLEND",
         "doubleSided" : false,
         "name" : "BlocksGlass",
         "pbrMetallicRoughness" : {
            "baseColorFactor" : [ 0.2, 0.2, 1, 0.3 ],
            "metallicFactor" : 1,
            "roughnessFactor" : 0.4
         }
      },
      {
         "alphaMode" : "OPAQUE",
         "doubleSided" : true,
         "name" : "BlocksGem",
         "pbrMetallicRoughness" : {
            "baseColorFactor" : [ 1, 0.4, 1, 1 ],
            "metallicFactor" : 0,
            "roughnessFactor" : 0.1
         }
      }
   ],
   "meshes" : [
      {
         "name" : "mesh_m0-PolyPaper10_-463270",
         "primitives" : [
            {
               "attributes" : {
                  "COLOR_0" : 0,
                  "NORMAL" : 4,
                  "POSITION" : 6
               },
               "indices" : 2,
               "material" : 0,
               "mode" : 4
            }
         ]
      },
      {
         "name" : "mesh_m1-PolyPaper10_-466844",
         "primitives" : [
            {
               "attributes" : {
                  "COLOR_0" : 1,
                  "NORMAL" : 5,
                  "POSITION" : 7
               },
               "indices" : 3,
               "material" : 0,
               "mode" : 4
            }
         ]
      }
   ],
   "nodes" : [
      {
         "mesh" : 0,
         "name" : "node_MeshObject-1111887872-PolyPaper10"
      },
      {
         "mesh" : 1,
         "name" : "node_MeshObject551491840-PolyPaper10"
      },
      {
         "children" : [ 3 ]
      },
      {
         "children" : [ 4 ],
         "extras" : {
            "isTransformNode" : 1
         },
         "translation" : [ -1.067459740760536, 2.025191210416917, -0.4507823098479833 ]
      },
      {
         "children" : [ 0, 1 ],
         "translation" : [ 1.067459740760536, -2.025191210416917, 0.4507823098479833 ]
      },
      {
         "camera" : 0,
         "children" : [ 6 ],
         "rotation" : [
            -0.08227195606052405,
            -0.6482761984366295,
            -0.07077057272884055,
            0.753631754786221
         ],
         "translation" : [ -2.831510066986084, 2.251168489456178, -0.1706233471632004 ]
      },
      {
         "extensions" : {
            "KHR_lights_punctual" : {
               "light" : 0
            }
         },
         "extras" : {
            "isHeadLight" : 1
         },
         "name" : "headLightNode",
         "translation" : [ -0.807349220514757, 0.4036746102573785, 0.4036746102573785 ]
      },
      {
         "extensions" : {
            "KHR_lights_punctual" : {
               "light" : 1
            }
         },
         "extras" : {
            "isKeyLight" : 1
         },
         "name" : "keyLightNode",
         "rotation" : [ -0.7505326882858236, -0.3752663441429118, 0, 0.5439447166468927 ],
         "scale" : [ 0, 0, 0.8154227127199045 ],
         "translation" : [ -1.924403001877649, 3.42539838463867, -1.183178694298578 ]
      }
   ],
   "scene" : 0,
   "scenes" : [
      {
         "extensions" : {
            "GOOGLE_backgrounds" : {
               "color" : [ 0.3607843137254902, 0.4196078431372549, 0.7529411764705882 ]
            },
            "GOOGLE_camera_settings" : {}
         },
         "extras" : {
            "GOOGLE_camera_index" : {
               "cameraIndex" : 0,
               "nodeIndex" : 5
            },
            "GOOGLE_geometry_data" : {
               "stats" : {
                  "centroid" : [ -1.108980289157745, 1.794552959198861, -0.3677559815786735 ],
                  "radius" : 0.807349220514757,
                  "stdev" : 0.3044727521862902
               },
               "visualCenterPoint" : [ -1.067459740760536, 2.025191210416917, -0.4507823098479833 ]
            },
            "GOOGLE_hemi_light" : {
               "groundColor" : [ 0.3607843137254902, 0.4196078431372549, 0.7529411764705882 ]
            }
         },
         "name" : "defaultScene",
         "nodes" : [ 2, 5, 7 ]
      }
   ]
}
